<svg width="900" height="700" viewBox="0 0 900 700" fill="none" xmlns="http://www.w3.org/2000/svg">
  <rect width="900" height="700" fill="#f1ede4"/>
  <path d="M232 220C286 162 392 170 440 236C494 310 482 508 416 570C358 624 254 596 220 520C184 438 172 284 232 220Z" fill="#d4cbbd"/>
  <path d="M302 292C336 270 386 292 392 334C398 376 358 410 320 394C282 378 272 312 302 292Z" fill="#f8f5ee"/>
  <path d="M562 246C604 198 694 212 724 272C758 340 730 510 672 554C616 596 534 566 512 494C490 422 512 302 562 246Z" fill="#171513"/>
</svg>
