<svg width="1200" height="900" viewBox="0 0 1200 900" fill="none" xmlns="http://www.w3.org/2000/svg">
  <rect width="1200" height="900" fill="#eee8dd"/>
  <rect x="76" y="76" width="1048" height="748" fill="#f8f5ee" stroke="#d4ccbf"/>
  <rect x="168" y="140" width="360" height="490" fill="#efeae1" stroke="#bdb3a5"/>
  <path d="M238 214C308 187 396 205 455 257C514 309 527 392 487 456C447 520 354 558 284 532C214 506 168 416 190 338C205 283 195 231 238 214Z" fill="#161513"/>
  <path d="M316 300C348 286 388 298 408 327C428 356 421 397 394 418C367 439 326 433 304 406C282 379 284 314 316 300Z" fill="#f8f5ee"/>
  <rect x="590" y="134" width="408" height="272" fill="#d6cbbb" stroke="#b7ab9d"/>
  <rect x="638" y="184" width="310" height="172" fill="#c4b6a3"/>
  <path d="M690 240H900" stroke="#8f8375" stroke-width="5"/>
  <path d="M718 282H872" stroke="#8f8375" stroke-width="3"/>
  <rect x="590" y="456" width="408" height="232" fill="#171513"/>
  <path d="M672 608C694 526 754 490 815 516C862 536 886 584 872 648H638C642 634 653 622 672 608Z" fill="#b59a73"/>
  <rect x="638" y="680" width="236" height="9" fill="#b59a73"/>
  <rect x="176" y="684" width="320" height="58" fill="#b9aa98"/>
  <rect x="560" y="722" width="390" height="38" fill="#cabfaf"/>
  <path d="M1000 206C1048 236 1072 292 1058 346C1044 400 990 424 940 402C890 380 866 318 882 266C898 214 952 176 1000 206Z" fill="#f8f5ee" stroke="#b9ad9f"/>
  <path d="M976 280C990 270 1012 274 1022 292C1032 310 1024 334 1004 340C984 346 962 332 958 312C954 296 962 286 976 280Z" fill="#eee8dd"/>
  <circle cx="208" cy="724" r="12" fill="#171513"/>
  <circle cx="920" cy="748" r="8" fill="#171513"/>
</svg>
