<svg width="1200" height="900" viewBox="0 0 1200 900" fill="none" xmlns="http://www.w3.org/2000/svg">
  <rect width="1200" height="900" fill="#f3f5f2"/>
  <rect x="72" y="72" width="1056" height="756" fill="#eef1ef" stroke="#b9bdb8"/>
  <path d="M72 626H1128" stroke="#aeb4b1" stroke-width="3"/>
  <path d="M184 72V626M424 72V626M664 72V626M904 72V626" stroke="#d2d6d3" stroke-width="2"/>
  <rect x="188" y="154" width="286" height="360" fill="#f9faf8" stroke="#aeb4b1" stroke-width="3"/>
  <path d="M238 244H424M238 324H424M238 404H424" stroke="#151515" stroke-width="6"/>
  <path d="M590 348H930C973 348 1008 383 1008 426V596H512V426C512 383 547 348 590 348Z" fill="#a9cce8" stroke="#111" stroke-width="14"/>
  <rect x="552" y="296" width="416" height="162" rx="18" fill="#b9d8ef" stroke="#111" stroke-width="14"/>
  <rect x="590" y="476" width="380" height="154" rx="18" fill="#9dc4e2" stroke="#111" stroke-width="14"/>
  <path d="M504 318H1018M504 646H1018M504 318V646M1018 318V646" stroke="#d9dde0" stroke-width="16" stroke-linecap="round"/>
  <path d="M506 318H1018M506 646H1018M506 318V646M1018 318V646" stroke="#111" stroke-width="7" stroke-linecap="round"/>
  <rect x="626" y="664" width="66" height="16" fill="#111"/>
  <rect x="834" y="664" width="66" height="16" fill="#111"/>
  <rect x="176" y="672" width="320" height="22" fill="#111"/>
  <rect x="210" y="702" width="250" height="18" fill="#b8a26f"/>
  <circle cx="988" cy="210" r="52" fill="#111"/>
  <rect x="934" y="266" width="108" height="12" fill="#111"/>
  <path d="M974 266V348" stroke="#111" stroke-width="8"/>
</svg>
